<?xml version="1.0" standalone="no"?>
<!DOCTYPE svg PUBLIC "-//W3C//DTD SVG 20010904//EN"
 "http://www.w3.org/TR/2001/REC-SVG-20010904/DTD/svg10.dtd">
<svg version="1.0" xmlns="http://www.w3.org/2000/svg"
 width="128.000000pt" height="128.000000pt" viewBox="0 0 128.000000 128.000000"
 preserveAspectRatio="xMidYMid meet">
<metadata>
Created by potrace 1.14, written by Peter Selinger 2001-2017
</metadata>
<g transform="translate(0.000000,128.000000) scale(0.100000,-0.100000)"
fill="#000000" stroke="none">
<path d="M5 999 c-3 -8 -4 -127 -3 -264 l3 -250 96 -3 c69 -2 99 1 106 10 16
21 95 315 109 403 7 51 -3 66 -56 83 -48 15 -82 21 -172 28 -61 5 -79 3 -83
-7z"/>
<path d="M1139 956 c-2 -2 -25 -6 -51 -9 -73 -9 -169 -39 -175 -54 -3 -8 -1
-24 5 -36 25 -50 67 -160 108 -282 29 -89 49 -133 62 -140 23 -12 171 -10 184
3 4 4 7 123 6 263 l-3 254 -66 2 c-37 1 -68 1 -70 -1z"/>
<path d="M584 874 c-58 -39 -83 -64 -111 -112 -31 -52 -25 -72 21 -72 25 0 40
7 54 25 19 24 89 55 125 55 10 0 53 -30 95 -66 42 -37 91 -78 107 -92 17 -13
54 -48 83 -76 l53 -51 -15 40 c-8 22 -31 85 -51 140 -61 169 -50 155 -167 198
-57 21 -115 37 -129 37 -14 0 -44 -12 -65 -26z"/>
<path d="M379 852 c-12 -2 -23 -30 -40 -100 -12 -53 -30 -121 -41 -151 -10
-30 -18 -58 -18 -63 0 -30 307 -268 346 -268 24 0 23 2 -18 46 -52 55 -54 60
-31 73 16 8 30 -2 86 -55 58 -56 70 -63 87 -54 11 6 20 16 20 23 0 7 -29 41
-65 76 -36 35 -65 68 -65 72 0 5 8 13 19 18 16 9 30 -1 92 -64 74 -76 96 -87
119 -60 10 13 1 27 -61 90 -73 73 -91 110 -57 110 10 0 53 -35 97 -78 79 -79
112 -93 119 -54 5 27 -32 71 -126 150 -48 39 -89 74 -92 77 -3 3 -24 20 -47
39 -40 30 -46 32 -77 21 -18 -6 -41 -19 -51 -30 -28 -30 -77 -43 -123 -31 -64
18 -75 72 -30 153 12 21 26 38 31 38 5 0 7 5 5 12 -4 12 -45 17 -79 10z"/>
</g>
</svg>
